<?xml version="1.0" encoding="utf-8"?>
<!-- Generator: Adobe Illustrator 19.0.0, SVG Export Plug-In . SVG Version: 6.00 Build 0)  -->
<svg version="1.1" id="Layer_1" xmlns="http://www.w3.org/2000/svg" xmlns:xlink="http://www.w3.org/1999/xlink" x="0px" y="0px"
	 viewBox="350 -200 1000 700" style="enable-background:new 350 -200 1000 700;" xml:space="preserve">
<style type="text/css">
	.st0{fill:none;stroke:#00FFEC;stroke-miterlimit:10;}
	.st1{fill:none;stroke:#00FFEC;stroke-width:0.865;stroke-miterlimit:10;}
</style>
<line id="XMLID_1_" class="st0" x1="350" y1="-172.2" x2="1406" y2="-172.2"/>
<line id="XMLID_3_" class="st0" x1="350" y1="-112.2" x2="1406" y2="-112.2"/>
<line id="XMLID_5_" class="st0" x1="350" y1="-52.2" x2="1406" y2="-52.2"/>
<line id="XMLID_7_" class="st0" x1="350" y1="7.8" x2="1406" y2="7.8"/>
<line id="XMLID_9_" class="st0" x1="350" y1="67.8" x2="1406" y2="67.8"/>
<line id="XMLID_11_" class="st0" x1="350" y1="127.8" x2="1406" y2="127.8"/>
<line id="XMLID_13_" class="st0" x1="350" y1="187.8" x2="1406" y2="187.8"/>
<line id="XMLID_15_" class="st0" x1="350" y1="247.8" x2="1406" y2="247.8"/>
<line id="XMLID_17_" class="st0" x1="350" y1="307.8" x2="1406" y2="307.8"/>
<line id="XMLID_19_" class="st0" x1="350" y1="367.8" x2="1406" y2="367.8"/>
<line id="XMLID_21_" class="st0" x1="350" y1="427.8" x2="1406" y2="427.8"/>
<line id="XMLID_23_" class="st0" x1="350" y1="487.8" x2="1406" y2="487.8"/>
<line id="XMLID_47_" class="st1" x1="1163" y1="-266.3" x2="1163" y2="523.7"/>
<line id="XMLID_45_" class="st1" x1="1103" y1="-266.3" x2="1103" y2="523.7"/>
<line id="XMLID_43_" class="st1" x1="1043" y1="-266.3" x2="1043" y2="523.7"/>
<line id="XMLID_41_" class="st1" x1="983" y1="-266.3" x2="983" y2="523.7"/>
<line id="XMLID_39_" class="st1" x1="923" y1="-266.3" x2="923" y2="523.7"/>
<line id="XMLID_37_" class="st1" x1="863" y1="-266.3" x2="863" y2="523.7"/>
<line id="XMLID_35_" class="st1" x1="803" y1="-266.3" x2="803" y2="523.7"/>
<line id="XMLID_33_" class="st1" x1="743" y1="-266.3" x2="743" y2="523.7"/>
<line id="XMLID_31_" class="st1" x1="683" y1="-266.3" x2="683" y2="523.7"/>
<line id="XMLID_29_" class="st1" x1="623" y1="-266.3" x2="623" y2="523.7"/>
<line id="XMLID_27_" class="st1" x1="563" y1="-266.3" x2="563" y2="523.7"/>
<line id="XMLID_25_" class="st1" x1="1223" y1="-266.3" x2="1223" y2="523.7"/>
<line id="XMLID_49_" class="st1" x1="503" y1="-266.3" x2="503" y2="523.7"/>
<line id="XMLID_51_" class="st1" x1="443" y1="-266.3" x2="443" y2="523.7"/>
<line id="XMLID_53_" class="st1" x1="383" y1="-266.3" x2="383" y2="523.7"/>
<line id="XMLID_55_" class="st1" x1="1283" y1="-266.3" x2="1283" y2="523.7"/>
<line id="XMLID_57_" class="st1" x1="1343" y1="-266.3" x2="1343" y2="523.7"/>
<line id="XMLID_91_" class="st1" x1="1163" y1="-266.3" x2="1163" y2="523.7"/>
<line id="XMLID_89_" class="st1" x1="1103" y1="-266.3" x2="1103" y2="523.7"/>
<line id="XMLID_87_" class="st1" x1="1043" y1="-266.3" x2="1043" y2="523.7"/>
<line id="XMLID_85_" class="st1" x1="983" y1="-266.3" x2="983" y2="523.7"/>
<line id="XMLID_83_" class="st1" x1="923" y1="-266.3" x2="923" y2="523.7"/>
<line id="XMLID_81_" class="st1" x1="863" y1="-266.3" x2="863" y2="523.7"/>
<line id="XMLID_79_" class="st1" x1="803" y1="-266.3" x2="803" y2="523.7"/>
<line id="XMLID_77_" class="st1" x1="743" y1="-266.3" x2="743" y2="523.7"/>
<line id="XMLID_75_" class="st1" x1="683" y1="-266.3" x2="683" y2="523.7"/>
<line id="XMLID_73_" class="st1" x1="623" y1="-266.3" x2="623" y2="523.7"/>
<line id="XMLID_71_" class="st1" x1="563" y1="-266.3" x2="563" y2="523.7"/>
<line id="XMLID_69_" class="st1" x1="1223" y1="-266.3" x2="1223" y2="523.7"/>
<line id="XMLID_68_" class="st1" x1="503" y1="-266.3" x2="503" y2="523.7"/>
<line id="XMLID_66_" class="st1" x1="443" y1="-266.3" x2="443" y2="523.7"/>
<line id="XMLID_64_" class="st1" x1="383" y1="-266.3" x2="383" y2="523.7"/>
<line id="XMLID_62_" class="st1" x1="1283" y1="-266.3" x2="1283" y2="523.7"/>
<line id="XMLID_60_" class="st1" x1="1343" y1="-266.3" x2="1343" y2="523.7"/>
</svg>
