<?xml version="1.0" encoding="utf-8"?>
<!-- Generator: Adobe Illustrator 19.0.0, SVG Export Plug-In . SVG Version: 6.00 Build 0)  -->
<svg version="1.1" id="Layer_1" xmlns="http://www.w3.org/2000/svg" xmlns:xlink="http://www.w3.org/1999/xlink" x="0px" y="0px"
	 viewBox="350 -200 1000 700" style="enable-background:new 350 -200 1000 700;" xml:space="preserve">
<style type="text/css">
	.st0{fill:none;stroke:#00FFEC;stroke-miterlimit:10;}
	.st1{fill:none;stroke:#00FFEC;stroke-width:0.865;stroke-miterlimit:10;}
</style>
<line id="XMLID_1_" class="st0" x1="328.1" y1="-164.9" x2="1384.1" y2="-164.9"/>
<line id="XMLID_2_" class="st0" x1="328.1" y1="-134.9" x2="1384.1" y2="-134.9"/>
<line id="XMLID_3_" class="st0" x1="328.1" y1="-104.9" x2="1384.1" y2="-104.9"/>
<line id="XMLID_4_" class="st0" x1="328.1" y1="-74.9" x2="1384.1" y2="-74.9"/>
<line id="XMLID_5_" class="st0" x1="328.1" y1="-44.9" x2="1384.1" y2="-44.9"/>
<line id="XMLID_6_" class="st0" x1="328.1" y1="-14.9" x2="1384.1" y2="-14.9"/>
<line id="XMLID_7_" class="st0" x1="328.1" y1="15.1" x2="1384.1" y2="15.1"/>
<line id="XMLID_8_" class="st0" x1="328.1" y1="45.1" x2="1384.1" y2="45.1"/>
<line id="XMLID_9_" class="st0" x1="328.1" y1="75.1" x2="1384.1" y2="75.1"/>
<line id="XMLID_10_" class="st0" x1="328.1" y1="105.1" x2="1384.1" y2="105.1"/>
<line id="XMLID_11_" class="st0" x1="328.1" y1="135.1" x2="1384.1" y2="135.1"/>
<line id="XMLID_12_" class="st0" x1="328.1" y1="165.1" x2="1384.1" y2="165.1"/>
<line id="XMLID_13_" class="st0" x1="328.1" y1="195.1" x2="1384.1" y2="195.1"/>
<line id="XMLID_14_" class="st0" x1="328.1" y1="225.1" x2="1384.1" y2="225.1"/>
<line id="XMLID_15_" class="st0" x1="328.1" y1="255.1" x2="1384.1" y2="255.1"/>
<line id="XMLID_16_" class="st0" x1="328.1" y1="285.1" x2="1384.1" y2="285.1"/>
<line id="XMLID_17_" class="st0" x1="328.1" y1="315.1" x2="1384.1" y2="315.1"/>
<line id="XMLID_18_" class="st0" x1="328.1" y1="345.1" x2="1384.1" y2="345.1"/>
<line id="XMLID_19_" class="st0" x1="328.1" y1="375.1" x2="1384.1" y2="375.1"/>
<line id="XMLID_20_" class="st0" x1="328.1" y1="405.1" x2="1384.1" y2="405.1"/>
<line id="XMLID_21_" class="st0" x1="328.1" y1="435.1" x2="1384.1" y2="435.1"/>
<line id="XMLID_22_" class="st0" x1="328.1" y1="465.1" x2="1384.1" y2="465.1"/>
<line id="XMLID_23_" class="st0" x1="328.1" y1="495.1" x2="1384.1" y2="495.1"/>
<line id="XMLID_24_" class="st0" x1="328.1" y1="-194.9" x2="1384.1" y2="-194.9"/>
<line id="XMLID_48_" class="st1" x1="1171.1" y1="-259" x2="1171.1" y2="531"/>
<line id="XMLID_47_" class="st1" x1="1141.1" y1="-259" x2="1141.1" y2="531"/>
<line id="XMLID_46_" class="st1" x1="1111.1" y1="-259" x2="1111.1" y2="531"/>
<line id="XMLID_45_" class="st1" x1="1081.1" y1="-259" x2="1081.1" y2="531"/>
<line id="XMLID_44_" class="st1" x1="1051.1" y1="-259" x2="1051.1" y2="531"/>
<line id="XMLID_43_" class="st1" x1="1021.1" y1="-259" x2="1021.1" y2="531"/>
<line id="XMLID_42_" class="st1" x1="991.1" y1="-259" x2="991.1" y2="531"/>
<line id="XMLID_41_" class="st1" x1="961.1" y1="-259" x2="961.1" y2="531"/>
<line id="XMLID_40_" class="st1" x1="931.1" y1="-259" x2="931.1" y2="531"/>
<line id="XMLID_39_" class="st1" x1="901.1" y1="-259" x2="901.1" y2="531"/>
<line id="XMLID_38_" class="st1" x1="871.1" y1="-259" x2="871.1" y2="531"/>
<line id="XMLID_37_" class="st1" x1="841.1" y1="-259" x2="841.1" y2="531"/>
<line id="XMLID_36_" class="st1" x1="811.1" y1="-259" x2="811.1" y2="531"/>
<line id="XMLID_35_" class="st1" x1="781.1" y1="-259" x2="781.1" y2="531"/>
<line id="XMLID_34_" class="st1" x1="751.1" y1="-259" x2="751.1" y2="531"/>
<line id="XMLID_33_" class="st1" x1="721.1" y1="-259" x2="721.1" y2="531"/>
<line id="XMLID_32_" class="st1" x1="691.1" y1="-259" x2="691.1" y2="531"/>
<line id="XMLID_31_" class="st1" x1="661.1" y1="-259" x2="661.1" y2="531"/>
<line id="XMLID_30_" class="st1" x1="631.1" y1="-259" x2="631.1" y2="531"/>
<line id="XMLID_29_" class="st1" x1="601.1" y1="-259" x2="601.1" y2="531"/>
<line id="XMLID_28_" class="st1" x1="571.1" y1="-259" x2="571.1" y2="531"/>
<line id="XMLID_27_" class="st1" x1="541.1" y1="-259" x2="541.1" y2="531"/>
<line id="XMLID_26_" class="st1" x1="511.1" y1="-259" x2="511.1" y2="531"/>
<line id="XMLID_25_" class="st1" x1="1201.1" y1="-259" x2="1201.1" y2="531"/>
<line id="XMLID_49_" class="st1" x1="481.1" y1="-259" x2="481.1" y2="531"/>
<line id="XMLID_50_" class="st1" x1="451.1" y1="-259" x2="451.1" y2="531"/>
<line id="XMLID_51_" class="st1" x1="421.1" y1="-259" x2="421.1" y2="531"/>
<line id="XMLID_52_" class="st1" x1="391.1" y1="-259" x2="391.1" y2="531"/>
<line id="XMLID_53_" class="st1" x1="361.1" y1="-259" x2="361.1" y2="531"/>
<line id="XMLID_54_" class="st1" x1="1231.1" y1="-259" x2="1231.1" y2="531"/>
<line id="XMLID_55_" class="st1" x1="1261.1" y1="-259" x2="1261.1" y2="531"/>
<line id="XMLID_56_" class="st1" x1="1291.1" y1="-259" x2="1291.1" y2="531"/>
<line id="XMLID_57_" class="st1" x1="1321.1" y1="-259" x2="1321.1" y2="531"/>
<line id="XMLID_58_" class="st1" x1="1351.1" y1="-259" x2="1351.1" y2="531"/>
<line id="XMLID_92_" class="st1" x1="1171.1" y1="-259" x2="1171.1" y2="531"/>
<line id="XMLID_91_" class="st1" x1="1141.1" y1="-259" x2="1141.1" y2="531"/>
<line id="XMLID_90_" class="st1" x1="1111.1" y1="-259" x2="1111.1" y2="531"/>
<line id="XMLID_89_" class="st1" x1="1081.1" y1="-259" x2="1081.1" y2="531"/>
<line id="XMLID_88_" class="st1" x1="1051.1" y1="-259" x2="1051.1" y2="531"/>
<line id="XMLID_87_" class="st1" x1="1021.1" y1="-259" x2="1021.1" y2="531"/>
<line id="XMLID_86_" class="st1" x1="991.1" y1="-259" x2="991.1" y2="531"/>
<line id="XMLID_85_" class="st1" x1="961.1" y1="-259" x2="961.1" y2="531"/>
<line id="XMLID_84_" class="st1" x1="931.1" y1="-259" x2="931.1" y2="531"/>
<line id="XMLID_83_" class="st1" x1="901.1" y1="-259" x2="901.1" y2="531"/>
<line id="XMLID_82_" class="st1" x1="871.1" y1="-259" x2="871.1" y2="531"/>
<line id="XMLID_81_" class="st1" x1="841.1" y1="-259" x2="841.1" y2="531"/>
<line id="XMLID_80_" class="st1" x1="811.1" y1="-259" x2="811.1" y2="531"/>
<line id="XMLID_79_" class="st1" x1="781.1" y1="-259" x2="781.1" y2="531"/>
<line id="XMLID_78_" class="st1" x1="751.1" y1="-259" x2="751.1" y2="531"/>
<line id="XMLID_77_" class="st1" x1="721.1" y1="-259" x2="721.1" y2="531"/>
<line id="XMLID_76_" class="st1" x1="691.1" y1="-259" x2="691.1" y2="531"/>
<line id="XMLID_75_" class="st1" x1="661.1" y1="-259" x2="661.1" y2="531"/>
<line id="XMLID_74_" class="st1" x1="631.1" y1="-259" x2="631.1" y2="531"/>
<line id="XMLID_73_" class="st1" x1="601.1" y1="-259" x2="601.1" y2="531"/>
<line id="XMLID_72_" class="st1" x1="571.1" y1="-259" x2="571.1" y2="531"/>
<line id="XMLID_71_" class="st1" x1="541.1" y1="-259" x2="541.1" y2="531"/>
<line id="XMLID_70_" class="st1" x1="511.1" y1="-259" x2="511.1" y2="531"/>
<line id="XMLID_69_" class="st1" x1="1201.1" y1="-259" x2="1201.1" y2="531"/>
<line id="XMLID_68_" class="st1" x1="481.1" y1="-259" x2="481.1" y2="531"/>
<line id="XMLID_67_" class="st1" x1="451.1" y1="-259" x2="451.1" y2="531"/>
<line id="XMLID_66_" class="st1" x1="421.1" y1="-259" x2="421.1" y2="531"/>
<line id="XMLID_65_" class="st1" x1="391.1" y1="-259" x2="391.1" y2="531"/>
<line id="XMLID_64_" class="st1" x1="361.1" y1="-259" x2="361.1" y2="531"/>
<line id="XMLID_63_" class="st1" x1="1231.1" y1="-259" x2="1231.1" y2="531"/>
<line id="XMLID_62_" class="st1" x1="1261.1" y1="-259" x2="1261.1" y2="531"/>
<line id="XMLID_61_" class="st1" x1="1291.1" y1="-259" x2="1291.1" y2="531"/>
<line id="XMLID_60_" class="st1" x1="1321.1" y1="-259" x2="1321.1" y2="531"/>
<line id="XMLID_59_" class="st1" x1="1351.1" y1="-259" x2="1351.1" y2="531"/>
</svg>
