<?xml version="1.0" encoding="utf-8"?>
<!-- Generator: Adobe Illustrator 19.0.0, SVG Export Plug-In . SVG Version: 6.00 Build 0)  -->
<svg version="1.1" id="Layer_1" xmlns="http://www.w3.org/2000/svg" xmlns:xlink="http://www.w3.org/1999/xlink" x="0px" y="0px"
	 viewBox="350 -200 1000 700" style="enable-background:new 350 -200 1000 700;" xml:space="preserve">
<style type="text/css">
	.st0{fill:none;stroke:#00FFEC;stroke-miterlimit:10;}
	.st1{fill:none;stroke:#00FFEC;stroke-width:0.865;stroke-miterlimit:10;}
</style>
<line id="XMLID_1_" class="st0" x1="322" y1="-185.8" x2="1378" y2="-185.8"/>
<line id="XMLID_5_" class="st0" x1="322" y1="-65.8" x2="1378" y2="-65.8"/>
<line id="XMLID_9_" class="st0" x1="322" y1="54.2" x2="1378" y2="54.2"/>
<line id="XMLID_13_" class="st0" x1="322" y1="174.2" x2="1378" y2="174.2"/>
<line id="XMLID_17_" class="st0" x1="322" y1="294.2" x2="1378" y2="294.2"/>
<line id="XMLID_21_" class="st0" x1="322" y1="414.2" x2="1378" y2="414.2"/>
<line id="XMLID_45_" class="st1" x1="1075" y1="-279.9" x2="1075" y2="510.1"/>
<line id="XMLID_41_" class="st1" x1="955" y1="-279.9" x2="955" y2="510.1"/>
<line id="XMLID_37_" class="st1" x1="835" y1="-279.9" x2="835" y2="510.1"/>
<line id="XMLID_33_" class="st1" x1="715" y1="-279.9" x2="715" y2="510.1"/>
<line id="XMLID_29_" class="st1" x1="595" y1="-279.9" x2="595" y2="510.1"/>
<line id="XMLID_25_" class="st1" x1="1195" y1="-279.9" x2="1195" y2="510.1"/>
<line id="XMLID_49_" class="st1" x1="475" y1="-279.9" x2="475" y2="510.1"/>
<line id="XMLID_53_" class="st1" x1="355" y1="-279.9" x2="355" y2="510.1"/>
<line id="XMLID_57_" class="st1" x1="1315" y1="-279.9" x2="1315" y2="510.1"/>
<line id="XMLID_89_" class="st1" x1="1075" y1="-279.9" x2="1075" y2="510.1"/>
<line id="XMLID_85_" class="st1" x1="955" y1="-279.9" x2="955" y2="510.1"/>
<line id="XMLID_81_" class="st1" x1="835" y1="-279.9" x2="835" y2="510.1"/>
<line id="XMLID_77_" class="st1" x1="715" y1="-279.9" x2="715" y2="510.1"/>
<line id="XMLID_73_" class="st1" x1="595" y1="-279.9" x2="595" y2="510.1"/>
<line id="XMLID_69_" class="st1" x1="1195" y1="-279.9" x2="1195" y2="510.1"/>
<line id="XMLID_68_" class="st1" x1="475" y1="-279.9" x2="475" y2="510.1"/>
<line id="XMLID_64_" class="st1" x1="355" y1="-279.9" x2="355" y2="510.1"/>
<line id="XMLID_60_" class="st1" x1="1315" y1="-279.9" x2="1315" y2="510.1"/>
</svg>
