<?xml version="1.0" encoding="utf-8"?>
<!-- Generator: Adobe Illustrator 19.0.0, SVG Export Plug-In . SVG Version: 6.00 Build 0)  -->
<svg version="1.1" id="Layer_1" xmlns="http://www.w3.org/2000/svg" xmlns:xlink="http://www.w3.org/1999/xlink" x="0px" y="0px"
	 viewBox="0 0 1000 700" style="enable-background:new 0 0 1000 700;" xml:space="preserve">
<style type="text/css">
	.st0{fill:none;stroke:#ED1C24;stroke-miterlimit:10;}
	.st1{fill:none;stroke:#ED1C24;stroke-width:0.865;stroke-miterlimit:10;}
</style>
<line id="XMLID_1_" class="st0" x1="-21.9" y1="35.1" x2="1034.1" y2="35.1"/>
<line id="XMLID_2_" class="st0" x1="-21.9" y1="65.1" x2="1034.1" y2="65.1"/>
<line id="XMLID_3_" class="st0" x1="-21.9" y1="95.1" x2="1034.1" y2="95.1"/>
<line id="XMLID_4_" class="st0" x1="-21.9" y1="125.1" x2="1034.1" y2="125.1"/>
<line id="XMLID_5_" class="st0" x1="-21.9" y1="155.1" x2="1034.1" y2="155.1"/>
<line id="XMLID_6_" class="st0" x1="-21.9" y1="185.1" x2="1034.1" y2="185.1"/>
<line id="XMLID_7_" class="st0" x1="-21.9" y1="215.1" x2="1034.1" y2="215.1"/>
<line id="XMLID_8_" class="st0" x1="-21.9" y1="245.1" x2="1034.1" y2="245.1"/>
<line id="XMLID_9_" class="st0" x1="-21.9" y1="275.1" x2="1034.1" y2="275.1"/>
<line id="XMLID_10_" class="st0" x1="-21.9" y1="305.1" x2="1034.1" y2="305.1"/>
<line id="XMLID_11_" class="st0" x1="-21.9" y1="335.1" x2="1034.1" y2="335.1"/>
<line id="XMLID_12_" class="st0" x1="-21.9" y1="365.1" x2="1034.1" y2="365.1"/>
<line id="XMLID_13_" class="st0" x1="-21.9" y1="395.1" x2="1034.1" y2="395.1"/>
<line id="XMLID_14_" class="st0" x1="-21.9" y1="425.1" x2="1034.1" y2="425.1"/>
<line id="XMLID_15_" class="st0" x1="-21.9" y1="455.1" x2="1034.1" y2="455.1"/>
<line id="XMLID_16_" class="st0" x1="-21.9" y1="485.1" x2="1034.1" y2="485.1"/>
<line id="XMLID_17_" class="st0" x1="-21.9" y1="515.1" x2="1034.1" y2="515.1"/>
<line id="XMLID_18_" class="st0" x1="-21.9" y1="545.1" x2="1034.1" y2="545.1"/>
<line id="XMLID_19_" class="st0" x1="-21.9" y1="575.1" x2="1034.1" y2="575.1"/>
<line id="XMLID_20_" class="st0" x1="-21.9" y1="605.1" x2="1034.1" y2="605.1"/>
<line id="XMLID_21_" class="st0" x1="-21.9" y1="635.1" x2="1034.1" y2="635.1"/>
<line id="XMLID_22_" class="st0" x1="-21.9" y1="665.1" x2="1034.1" y2="665.1"/>
<line id="XMLID_23_" class="st0" x1="-21.9" y1="695.1" x2="1034.1" y2="695.1"/>
<line id="XMLID_24_" class="st0" x1="-21.9" y1="5.1" x2="1034.1" y2="5.1"/>
<line id="XMLID_48_" class="st1" x1="821.1" y1="-59" x2="821.1" y2="731"/>
<line id="XMLID_47_" class="st1" x1="791.1" y1="-59" x2="791.1" y2="731"/>
<line id="XMLID_46_" class="st1" x1="761.1" y1="-59" x2="761.1" y2="731"/>
<line id="XMLID_45_" class="st1" x1="731.1" y1="-59" x2="731.1" y2="731"/>
<line id="XMLID_44_" class="st1" x1="701.1" y1="-59" x2="701.1" y2="731"/>
<line id="XMLID_43_" class="st1" x1="671.1" y1="-59" x2="671.1" y2="731"/>
<line id="XMLID_42_" class="st1" x1="641.1" y1="-59" x2="641.1" y2="731"/>
<line id="XMLID_41_" class="st1" x1="611.1" y1="-59" x2="611.1" y2="731"/>
<line id="XMLID_40_" class="st1" x1="581.1" y1="-59" x2="581.1" y2="731"/>
<line id="XMLID_39_" class="st1" x1="551.1" y1="-59" x2="551.1" y2="731"/>
<line id="XMLID_38_" class="st1" x1="521.1" y1="-59" x2="521.1" y2="731"/>
<line id="XMLID_37_" class="st1" x1="491.1" y1="-59" x2="491.1" y2="731"/>
<line id="XMLID_36_" class="st1" x1="461.1" y1="-59" x2="461.1" y2="731"/>
<line id="XMLID_35_" class="st1" x1="431.1" y1="-59" x2="431.1" y2="731"/>
<line id="XMLID_34_" class="st1" x1="401.1" y1="-59" x2="401.1" y2="731"/>
<line id="XMLID_33_" class="st1" x1="371.1" y1="-59" x2="371.1" y2="731"/>
<line id="XMLID_32_" class="st1" x1="341.1" y1="-59" x2="341.1" y2="731"/>
<line id="XMLID_31_" class="st1" x1="311.1" y1="-59" x2="311.1" y2="731"/>
<line id="XMLID_30_" class="st1" x1="281.1" y1="-59" x2="281.1" y2="731"/>
<line id="XMLID_29_" class="st1" x1="251.1" y1="-59" x2="251.1" y2="731"/>
<line id="XMLID_28_" class="st1" x1="221.1" y1="-59" x2="221.1" y2="731"/>
<line id="XMLID_27_" class="st1" x1="191.1" y1="-59" x2="191.1" y2="731"/>
<line id="XMLID_26_" class="st1" x1="161.1" y1="-59" x2="161.1" y2="731"/>
<line id="XMLID_25_" class="st1" x1="851.1" y1="-59" x2="851.1" y2="731"/>
<line id="XMLID_49_" class="st1" x1="131.1" y1="-59" x2="131.1" y2="731"/>
<line id="XMLID_50_" class="st1" x1="101.1" y1="-59" x2="101.1" y2="731"/>
<line id="XMLID_51_" class="st1" x1="71.1" y1="-59" x2="71.1" y2="731"/>
<line id="XMLID_52_" class="st1" x1="41.1" y1="-59" x2="41.1" y2="731"/>
<line id="XMLID_53_" class="st1" x1="11.1" y1="-59" x2="11.1" y2="731"/>
<line id="XMLID_54_" class="st1" x1="881.1" y1="-59" x2="881.1" y2="731"/>
<line id="XMLID_55_" class="st1" x1="911.1" y1="-59" x2="911.1" y2="731"/>
<line id="XMLID_56_" class="st1" x1="941.1" y1="-59" x2="941.1" y2="731"/>
<line id="XMLID_57_" class="st1" x1="971.1" y1="-59" x2="971.1" y2="731"/>
<line id="XMLID_58_" class="st1" x1="1001.1" y1="-59" x2="1001.1" y2="731"/>
<line id="XMLID_92_" class="st1" x1="821.1" y1="-59" x2="821.1" y2="731"/>
<line id="XMLID_91_" class="st1" x1="791.1" y1="-59" x2="791.1" y2="731"/>
<line id="XMLID_90_" class="st1" x1="761.1" y1="-59" x2="761.1" y2="731"/>
<line id="XMLID_89_" class="st1" x1="731.1" y1="-59" x2="731.1" y2="731"/>
<line id="XMLID_88_" class="st1" x1="701.1" y1="-59" x2="701.1" y2="731"/>
<line id="XMLID_87_" class="st1" x1="671.1" y1="-59" x2="671.1" y2="731"/>
<line id="XMLID_86_" class="st1" x1="641.1" y1="-59" x2="641.1" y2="731"/>
<line id="XMLID_85_" class="st1" x1="611.1" y1="-59" x2="611.1" y2="731"/>
<line id="XMLID_84_" class="st1" x1="581.1" y1="-59" x2="581.1" y2="731"/>
<line id="XMLID_83_" class="st1" x1="551.1" y1="-59" x2="551.1" y2="731"/>
<line id="XMLID_82_" class="st1" x1="521.1" y1="-59" x2="521.1" y2="731"/>
<line id="XMLID_81_" class="st1" x1="491.1" y1="-59" x2="491.1" y2="731"/>
<line id="XMLID_80_" class="st1" x1="461.1" y1="-59" x2="461.1" y2="731"/>
<line id="XMLID_79_" class="st1" x1="431.1" y1="-59" x2="431.1" y2="731"/>
<line id="XMLID_78_" class="st1" x1="401.1" y1="-59" x2="401.1" y2="731"/>
<line id="XMLID_77_" class="st1" x1="371.1" y1="-59" x2="371.1" y2="731"/>
<line id="XMLID_76_" class="st1" x1="341.1" y1="-59" x2="341.1" y2="731"/>
<line id="XMLID_75_" class="st1" x1="311.1" y1="-59" x2="311.1" y2="731"/>
<line id="XMLID_74_" class="st1" x1="281.1" y1="-59" x2="281.1" y2="731"/>
<line id="XMLID_73_" class="st1" x1="251.1" y1="-59" x2="251.1" y2="731"/>
<line id="XMLID_72_" class="st1" x1="221.1" y1="-59" x2="221.1" y2="731"/>
<line id="XMLID_71_" class="st1" x1="191.1" y1="-59" x2="191.1" y2="731"/>
<line id="XMLID_70_" class="st1" x1="161.1" y1="-59" x2="161.1" y2="731"/>
<line id="XMLID_69_" class="st1" x1="851.1" y1="-59" x2="851.1" y2="731"/>
<line id="XMLID_68_" class="st1" x1="131.1" y1="-59" x2="131.1" y2="731"/>
<line id="XMLID_67_" class="st1" x1="101.1" y1="-59" x2="101.1" y2="731"/>
<line id="XMLID_66_" class="st1" x1="71.1" y1="-59" x2="71.1" y2="731"/>
<line id="XMLID_65_" class="st1" x1="41.1" y1="-59" x2="41.1" y2="731"/>
<line id="XMLID_64_" class="st1" x1="11.1" y1="-59" x2="11.1" y2="731"/>
<line id="XMLID_63_" class="st1" x1="881.1" y1="-59" x2="881.1" y2="731"/>
<line id="XMLID_62_" class="st1" x1="911.1" y1="-59" x2="911.1" y2="731"/>
<line id="XMLID_61_" class="st1" x1="941.1" y1="-59" x2="941.1" y2="731"/>
<line id="XMLID_60_" class="st1" x1="971.1" y1="-59" x2="971.1" y2="731"/>
<line id="XMLID_59_" class="st1" x1="1001.1" y1="-59" x2="1001.1" y2="731"/>
</svg>
