<?xml version="1.0" encoding="utf-8"?>
<!-- Generator: Adobe Illustrator 19.0.0, SVG Export Plug-In . SVG Version: 6.00 Build 0)  -->
<svg version="1.1" id="Layer_1" xmlns="http://www.w3.org/2000/svg" xmlns:xlink="http://www.w3.org/1999/xlink" x="0px" y="0px"
	 viewBox="350 -200 1000 700" style="enable-background:new 350 -200 1000 700;" xml:space="preserve">
<style type="text/css">
	.st0{fill:none;stroke:#ED1C24;stroke-miterlimit:10;}
	.st1{fill:none;stroke:#ED1C24;stroke-width:0.865;stroke-miterlimit:10;}
</style>
<line id="XMLID_1_" class="st0" x1="328.1" y1="-164.9" x2="1384.1" y2="-164.9"/>
<line id="XMLID_2_" class="st0" x1="328.1" y1="-134.9" x2="1384.1" y2="-134.9"/>
<line id="XMLID_3_" class="st0" x1="328.1" y1="-104.9" x2="1384.1" y2="-104.9"/>
<line id="XMLID_4_" class="st0" x1="328.1" y1="-74.9" x2="1384.1" y2="-74.9"/>
<line id="XMLID_5_" class="st0" x1="328.1" y1="-44.9" x2="1384.1" y2="-44.9"/>
<line id="XMLID_6_" class="st0" x1="328.1" y1="-14.9" x2="1384.1" y2="-14.9"/>
<line id="XMLID_7_" class="st0" x1="328.1" y1="15.1" x2="1384.1" y2="15.1"/>
<line id="XMLID_8_" class="st0" x1="328.1" y1="45.1" x2="1384.1" y2="45.1"/>
<line id="XMLID_9_" class="st0" x1="328.1" y1="75.1" x2="1384.1" y2="75.1"/>
<line id="XMLID_10_" class="st0" x1="328.1" y1="105.1" x2="1384.1" y2="105.1"/>
<line id="XMLID_11_" class="st0" x1="328.1" y1="135.1" x2="1384.1" y2="135.1"/>
<line id="XMLID_12_" class="st0" x1="328.1" y1="165.1" x2="1384.1" y2="165.1"/>
<line id="XMLID_13_" class="st0" x1="328.1" y1="195.1" x2="1384.1" y2="195.1"/>
<line id="XMLID_14_" class="st0" x1="328.1" y1="225.1" x2="1384.1" y2="225.1"/>
<line id="XMLID_15_" class="st0" x1="328.1" y1="255.1" x2="1384.1" y2="255.1"/>
<line id="XMLID_16_" class="st0" x1="328.1" y1="285.1" x2="1384.1" y2="285.1"/>
<line id="XMLID_17_" class="st0" x1="328.1" y1="315.1" x2="1384.1" y2="315.1"/>
<line id="XMLID_18_" class="st0" x1="328.1" y1="345.1" x2="1384.1" y2="345.1"/>
<line id="XMLID_19_" class="st0" x1="328.1" y1="375.1" x2="1384.1" y2="375.1"/>
<line id="XMLID_20_" class="st0" x1="328.1" y1="405.1" x2="1384.1" y2="405.1"/>
<line id="XMLID_21_" class="st0" x1="328.1" y1="435.1" x2="1384.1" y2="435.1"/>
<line id="XMLID_22_" class="st0" x1="328.1" y1="465.1" x2="1384.1" y2="465.1"/>
<line id="XMLID_23_" class="st0" x1="328.1" y1="495.1" x2="1384.1" y2="495.1"/>
<line id="XMLID_24_" class="st0" x1="328.1" y1="-194.9" x2="1384.1" y2="-194.9"/>
<line id="XMLID_48_" class="st1" x1="1171.1" y1="-259" x2="1171.1" y2="531"/>
<line id="XMLID_47_" class="st1" x1="1141.1" y1="-259" x2="1141.1" y2="531"/>
<line id="XMLID_46_" class="st1" x1="1111.1" y1="-259" x2="1111.1" y2="531"/>
<line id="XMLID_45_" class="st1" x1="1081.1" y1="-259" x2="1081.1" y2="531"/>
<line id="XMLID_44_" class="st1" x1="1051.1" y1="-259" x2="1051.1" y2="531"/>
<line id="XMLID_43_" class="st1" x1="1021.1" y1="-259" x2="1021.1" y2="531"/>
<line id="XMLID_42_" class="st1" x1="991.1" y1="-259" x2="991.1" y2="531"/>
<line id="XMLID_41_" class="st1" x1="961.1" y1="-259" x2="961.1" y2="531"/>
<line id="XMLID_40_" class="st1" x1="931.1" y1="-259" x2="931.1" y2="531"/>
<line id="XMLID_39_" class="st1" x1="901.1" y1="-259" x2="901.1" y2="531"/>
<line id="XMLID_38_" class="st1" x1="871.1" y1="-259" x2="871.1" y2="531"/>
<line id="XMLID_37_" class="st1" x1="841.1" y1="-259" x2="841.1" y2="531"/>
<line id="XMLID_36_" class="st1" x1="811.1" y1="-259" x2="811.1" y2="531"/>
<line id="XMLID_35_" class="st1" x1="781.1" y1="-259" x2="781.1" y2="531"/>
<line id="XMLID_34_" class="st1" x1="751.1" y1="-259" x2="751.1" y2="531"/>
<line id="XMLID_33_" class="st1" x1="721.1" y1="-259" x2="721.1" y2="531"/>
<line id="XMLID_32_" class="st1" x1="691.1" y1="-259" x2="691.1" y2="531"/>
<line id="XMLID_31_" class="st1" x1="661.1" y1="-259" x2="661.1" y2="531"/>
<line id="XMLID_30_" class="st1" x1="631.1" y1="-259" x2="631.1" y2="531"/>
<line id="XMLID_29_" class="st1" x1="601.1" y1="-259" x2="601.1" y2="531"/>
<line id="XMLID_28_" class="st1" x1="571.1" y1="-259" x2="571.1" y2="531"/>
<line id="XMLID_27_" class="st1" x1="541.1" y1="-259" x2="541.1" y2="531"/>
<line id="XMLID_26_" class="st1" x1="511.1" y1="-259" x2="511.1" y2="531"/>
<line id="XMLID_25_" class="st1" x1="1201.1" y1="-259" x2="1201.1" y2="531"/>
<line id="XMLID_49_" class="st1" x1="481.1" y1="-259" x2="481.1" y2="531"/>
<line id="XMLID_50_" class="st1" x1="451.1" y1="-259" x2="451.1" y2="531"/>
<line id="XMLID_51_" class="st1" x1="421.1" y1="-259" x2="421.1" y2="531"/>
<line id="XMLID_52_" class="st1" x1="391.1" y1="-259" x2="391.1" y2="531"/>
<line id="XMLID_53_" class="st1" x1="361.1" y1="-259" x2="361.1" y2="531"/>
<line id="XMLID_54_" class="st1" x1="1231.1" y1="-259" x2="1231.1" y2="531"/>
<line id="XMLID_55_" class="st1" x1="1261.1" y1="-259" x2="1261.1" y2="531"/>
<line id="XMLID_56_" class="st1" x1="1291.1" y1="-259" x2="1291.1" y2="531"/>
<line id="XMLID_57_" class="st1" x1="1321.1" y1="-259" x2="1321.1" y2="531"/>
<line id="XMLID_58_" class="st1" x1="1351.1" y1="-259" x2="1351.1" y2="531"/>
<line id="XMLID_92_" class="st1" x1="1171.1" y1="-259" x2="1171.1" y2="531"/>
<line id="XMLID_91_" class="st1" x1="1141.1" y1="-259" x2="1141.1" y2="531"/>
<line id="XMLID_90_" class="st1" x1="1111.1" y1="-259" x2="1111.1" y2="531"/>
<line id="XMLID_89_" class="st1" x1="1081.1" y1="-259" x2="1081.1" y2="531"/>
<line id="XMLID_88_" class="st1" x1="1051.1" y1="-259" x2="1051.1" y2="531"/>
<line id="XMLID_87_" class="st1" x1="1021.1" y1="-259" x2="1021.1" y2="531"/>
<line id="XMLID_86_" class="st1" x1="991.1" y1="-259" x2="991.1" y2="531"/>
<line id="XMLID_85_" class="st1" x1="961.1" y1="-259" x2="961.1" y2="531"/>
<line id="XMLID_84_" class="st1" x1="931.1" y1="-259" x2="931.1" y2="531"/>
<line id="XMLID_83_" class="st1" x1="901.1" y1="-259" x2="901.1" y2="531"/>
<line id="XMLID_82_" class="st1" x1="871.1" y1="-259" x2="871.1" y2="531"/>
<line id="XMLID_81_" class="st1" x1="841.1" y1="-259" x2="841.1" y2="531"/>
<line id="XMLID_80_" class="st1" x1="811.1" y1="-259" x2="811.1" y2="531"/>
<line id="XMLID_79_" class="st1" x1="781.1" y1="-259" x2="781.1" y2="531"/>
<line id="XMLID_78_" class="st1" x1="751.1" y1="-259" x2="751.1" y2="531"/>
<line id="XMLID_77_" class="st1" x1="721.1" y1="-259" x2="721.1" y2="531"/>
<line id="XMLID_76_" class="st1" x1="691.1" y1="-259" x2="691.1" y2="531"/>
<line id="XMLID_75_" class="st1" x1="661.1" y1="-259" x2="661.1" y2="531"/>
<line id="XMLID_74_" class="st1" x1="631.1" y1="-259" x2="631.1" y2="531"/>
<line id="XMLID_73_" class="st1" x1="601.1" y1="-259" x2="601.1" y2="531"/>
<line id="XMLID_72_" class="st1" x1="571.1" y1="-259" x2="571.1" y2="531"/>
<line id="XMLID_71_" class="st1" x1="541.1" y1="-259" x2="541.1" y2="531"/>
<line id="XMLID_70_" class="st1" x1="511.1" y1="-259" x2="511.1" y2="531"/>
<line id="XMLID_69_" class="st1" x1="1201.1" y1="-259" x2="1201.1" y2="531"/>
<line id="XMLID_68_" class="st1" x1="481.1" y1="-259" x2="481.1" y2="531"/>
<line id="XMLID_67_" class="st1" x1="451.1" y1="-259" x2="451.1" y2="531"/>
<line id="XMLID_66_" class="st1" x1="421.1" y1="-259" x2="421.1" y2="531"/>
<line id="XMLID_65_" class="st1" x1="391.1" y1="-259" x2="391.1" y2="531"/>
<line id="XMLID_64_" class="st1" x1="361.1" y1="-259" x2="361.1" y2="531"/>
<line id="XMLID_63_" class="st1" x1="1231.1" y1="-259" x2="1231.1" y2="531"/>
<line id="XMLID_62_" class="st1" x1="1261.1" y1="-259" x2="1261.1" y2="531"/>
<line id="XMLID_61_" class="st1" x1="1291.1" y1="-259" x2="1291.1" y2="531"/>
<line id="XMLID_60_" class="st1" x1="1321.1" y1="-259" x2="1321.1" y2="531"/>
<line id="XMLID_59_" class="st1" x1="1351.1" y1="-259" x2="1351.1" y2="531"/>
<line id="XMLID_184_" class="st0" x1="343.1" y1="-149.9" x2="1399.1" y2="-149.9"/>
<line id="XMLID_183_" class="st0" x1="343.1" y1="-119.9" x2="1399.1" y2="-119.9"/>
<line id="XMLID_182_" class="st0" x1="343.1" y1="-89.9" x2="1399.1" y2="-89.9"/>
<line id="XMLID_181_" class="st0" x1="343.1" y1="-59.9" x2="1399.1" y2="-59.9"/>
<line id="XMLID_180_" class="st0" x1="343.1" y1="-29.9" x2="1399.1" y2="-29.9"/>
<line id="XMLID_179_" class="st0" x1="343.1" y1="0.1" x2="1399.1" y2="0.1"/>
<line id="XMLID_178_" class="st0" x1="343.1" y1="30.1" x2="1399.1" y2="30.1"/>
<line id="XMLID_177_" class="st0" x1="343.1" y1="60.1" x2="1399.1" y2="60.1"/>
<line id="XMLID_176_" class="st0" x1="343.1" y1="90.1" x2="1399.1" y2="90.1"/>
<line id="XMLID_175_" class="st0" x1="343.1" y1="120.1" x2="1399.1" y2="120.1"/>
<line id="XMLID_174_" class="st0" x1="343.1" y1="150.1" x2="1399.1" y2="150.1"/>
<line id="XMLID_173_" class="st0" x1="343.1" y1="180.1" x2="1399.1" y2="180.1"/>
<line id="XMLID_172_" class="st0" x1="343.1" y1="210.1" x2="1399.1" y2="210.1"/>
<line id="XMLID_171_" class="st0" x1="343.1" y1="240.1" x2="1399.1" y2="240.1"/>
<line id="XMLID_170_" class="st0" x1="343.1" y1="270.1" x2="1399.1" y2="270.1"/>
<line id="XMLID_169_" class="st0" x1="343.1" y1="300.1" x2="1399.1" y2="300.1"/>
<line id="XMLID_168_" class="st0" x1="343.1" y1="330.1" x2="1399.1" y2="330.1"/>
<line id="XMLID_167_" class="st0" x1="343.1" y1="360.1" x2="1399.1" y2="360.1"/>
<line id="XMLID_166_" class="st0" x1="343.1" y1="390.1" x2="1399.1" y2="390.1"/>
<line id="XMLID_165_" class="st0" x1="343.1" y1="420.1" x2="1399.1" y2="420.1"/>
<line id="XMLID_164_" class="st0" x1="343.1" y1="450.1" x2="1399.1" y2="450.1"/>
<line id="XMLID_163_" class="st0" x1="343.1" y1="480.1" x2="1399.1" y2="480.1"/>
<line id="XMLID_162_" class="st0" x1="343.1" y1="510.1" x2="1399.1" y2="510.1"/>
<line id="XMLID_161_" class="st0" x1="343.1" y1="-179.9" x2="1399.1" y2="-179.9"/>
<line id="XMLID_160_" class="st1" x1="1186.1" y1="-244" x2="1186.1" y2="546"/>
<line id="XMLID_159_" class="st1" x1="1156.1" y1="-244" x2="1156.1" y2="546"/>
<line id="XMLID_158_" class="st1" x1="1126.1" y1="-244" x2="1126.1" y2="546"/>
<line id="XMLID_157_" class="st1" x1="1096.1" y1="-244" x2="1096.1" y2="546"/>
<line id="XMLID_156_" class="st1" x1="1066.1" y1="-244" x2="1066.1" y2="546"/>
<line id="XMLID_155_" class="st1" x1="1036.1" y1="-244" x2="1036.1" y2="546"/>
<line id="XMLID_154_" class="st1" x1="1006.1" y1="-244" x2="1006.1" y2="546"/>
<line id="XMLID_153_" class="st1" x1="976.1" y1="-244" x2="976.1" y2="546"/>
<line id="XMLID_152_" class="st1" x1="946.1" y1="-244" x2="946.1" y2="546"/>
<line id="XMLID_151_" class="st1" x1="916.1" y1="-244" x2="916.1" y2="546"/>
<line id="XMLID_150_" class="st1" x1="886.1" y1="-244" x2="886.1" y2="546"/>
<line id="XMLID_149_" class="st1" x1="856.1" y1="-244" x2="856.1" y2="546"/>
<line id="XMLID_148_" class="st1" x1="826.1" y1="-244" x2="826.1" y2="546"/>
<line id="XMLID_147_" class="st1" x1="796.1" y1="-244" x2="796.1" y2="546"/>
<line id="XMLID_146_" class="st1" x1="766.1" y1="-244" x2="766.1" y2="546"/>
<line id="XMLID_145_" class="st1" x1="736.1" y1="-244" x2="736.1" y2="546"/>
<line id="XMLID_144_" class="st1" x1="706.1" y1="-244" x2="706.1" y2="546"/>
<line id="XMLID_143_" class="st1" x1="676.1" y1="-244" x2="676.1" y2="546"/>
<line id="XMLID_142_" class="st1" x1="646.1" y1="-244" x2="646.1" y2="546"/>
<line id="XMLID_141_" class="st1" x1="616.1" y1="-244" x2="616.1" y2="546"/>
<line id="XMLID_140_" class="st1" x1="586.1" y1="-244" x2="586.1" y2="546"/>
<line id="XMLID_139_" class="st1" x1="556.1" y1="-244" x2="556.1" y2="546"/>
<line id="XMLID_138_" class="st1" x1="526.1" y1="-244" x2="526.1" y2="546"/>
<line id="XMLID_137_" class="st1" x1="1216.1" y1="-244" x2="1216.1" y2="546"/>
<line id="XMLID_136_" class="st1" x1="496.1" y1="-244" x2="496.1" y2="546"/>
<line id="XMLID_135_" class="st1" x1="466.1" y1="-244" x2="466.1" y2="546"/>
<line id="XMLID_134_" class="st1" x1="436.1" y1="-244" x2="436.1" y2="546"/>
<line id="XMLID_133_" class="st1" x1="406.1" y1="-244" x2="406.1" y2="546"/>
<line id="XMLID_132_" class="st1" x1="376.1" y1="-244" x2="376.1" y2="546"/>
<line id="XMLID_131_" class="st1" x1="1246.1" y1="-244" x2="1246.1" y2="546"/>
<line id="XMLID_130_" class="st1" x1="1276.1" y1="-244" x2="1276.1" y2="546"/>
<line id="XMLID_129_" class="st1" x1="1306.1" y1="-244" x2="1306.1" y2="546"/>
<line id="XMLID_128_" class="st1" x1="1336.1" y1="-244" x2="1336.1" y2="546"/>
<line id="XMLID_127_" class="st1" x1="1366.1" y1="-244" x2="1366.1" y2="546"/>
<line id="XMLID_126_" class="st1" x1="1186.1" y1="-244" x2="1186.1" y2="546"/>
<line id="XMLID_125_" class="st1" x1="1156.1" y1="-244" x2="1156.1" y2="546"/>
<line id="XMLID_124_" class="st1" x1="1126.1" y1="-244" x2="1126.1" y2="546"/>
<line id="XMLID_123_" class="st1" x1="1096.1" y1="-244" x2="1096.1" y2="546"/>
<line id="XMLID_122_" class="st1" x1="1066.1" y1="-244" x2="1066.1" y2="546"/>
<line id="XMLID_121_" class="st1" x1="1036.1" y1="-244" x2="1036.1" y2="546"/>
<line id="XMLID_120_" class="st1" x1="1006.1" y1="-244" x2="1006.1" y2="546"/>
<line id="XMLID_119_" class="st1" x1="976.1" y1="-244" x2="976.1" y2="546"/>
<line id="XMLID_118_" class="st1" x1="946.1" y1="-244" x2="946.1" y2="546"/>
<line id="XMLID_117_" class="st1" x1="916.1" y1="-244" x2="916.1" y2="546"/>
<line id="XMLID_116_" class="st1" x1="886.1" y1="-244" x2="886.1" y2="546"/>
<line id="XMLID_115_" class="st1" x1="856.1" y1="-244" x2="856.1" y2="546"/>
<line id="XMLID_114_" class="st1" x1="826.1" y1="-244" x2="826.1" y2="546"/>
<line id="XMLID_113_" class="st1" x1="796.1" y1="-244" x2="796.1" y2="546"/>
<line id="XMLID_112_" class="st1" x1="766.1" y1="-244" x2="766.1" y2="546"/>
<line id="XMLID_111_" class="st1" x1="736.1" y1="-244" x2="736.1" y2="546"/>
<line id="XMLID_110_" class="st1" x1="706.1" y1="-244" x2="706.1" y2="546"/>
<line id="XMLID_109_" class="st1" x1="676.1" y1="-244" x2="676.1" y2="546"/>
<line id="XMLID_108_" class="st1" x1="646.1" y1="-244" x2="646.1" y2="546"/>
<line id="XMLID_107_" class="st1" x1="616.1" y1="-244" x2="616.1" y2="546"/>
<line id="XMLID_106_" class="st1" x1="586.1" y1="-244" x2="586.1" y2="546"/>
<line id="XMLID_105_" class="st1" x1="556.1" y1="-244" x2="556.1" y2="546"/>
<line id="XMLID_104_" class="st1" x1="526.1" y1="-244" x2="526.1" y2="546"/>
<line id="XMLID_103_" class="st1" x1="1216.1" y1="-244" x2="1216.1" y2="546"/>
<line id="XMLID_102_" class="st1" x1="496.1" y1="-244" x2="496.1" y2="546"/>
<line id="XMLID_101_" class="st1" x1="466.1" y1="-244" x2="466.1" y2="546"/>
<line id="XMLID_100_" class="st1" x1="436.1" y1="-244" x2="436.1" y2="546"/>
<line id="XMLID_99_" class="st1" x1="406.1" y1="-244" x2="406.1" y2="546"/>
<line id="XMLID_98_" class="st1" x1="376.1" y1="-244" x2="376.1" y2="546"/>
<line id="XMLID_97_" class="st1" x1="1246.1" y1="-244" x2="1246.1" y2="546"/>
<line id="XMLID_96_" class="st1" x1="1276.1" y1="-244" x2="1276.1" y2="546"/>
<line id="XMLID_95_" class="st1" x1="1306.1" y1="-244" x2="1306.1" y2="546"/>
<line id="XMLID_94_" class="st1" x1="1336.1" y1="-244" x2="1336.1" y2="546"/>
<line id="XMLID_93_" class="st1" x1="1366.1" y1="-244" x2="1366.1" y2="546"/>
</svg>
